<svg id="line" viewBox="0 0 64 64" xmlns="http://www.w3.org/2000/svg"><path d="m26.00914 26.95846a10.24153 10.24153 0 0 0 -6.77988-10.72628 6.818 6.818 0 1 0 -8.40692-.00006 10.24122 10.24122 0 0 0 -6.7797 10.7264 4.05067 4.05067 0 0 0 4.04642 4.04654h13.87348a4.051 4.051 0 0 0 4.0466-4.0466zm-15.80951-16.08936c.20293-6.378 9.45032-6.37656 9.65235.00006-.20276 6.37735-9.45057 6.37584-9.65235-.00006zm-4.1602 16.08936a8.16706 8.16706 0 0 1 7.988-9.2667h1.99685a7.997 7.997 0 0 1 7.98788 7.98788v1.27882a2.052 2.052 0 0 1 -2.04963 2.04963h-13.87347a2.052 2.052 0 0 1 -2.04963-2.04963z"/><path d="m53.17789 45.1882a6.818 6.818 0 1 0 -8.407 0 10.2412 10.2412 0 0 0 -6.77969 10.7264 4.05065 4.05065 0 0 0 4.04641 4.04653h13.87344a4.05094 4.05094 0 0 0 4.04659-4.04659 10.24166 10.24166 0 0 0 -6.77975-10.72634zm-9.02976-5.363c.20294-6.378 9.45032-6.37656 9.65235.00006-.20276 6.37733-9.45057 6.3758-9.65235-.00008zm13.81254 16.08934a2.052 2.052 0 0 1 -2.04962 2.04962h-13.87349a2.052 2.052 0 0 1 -2.04963-2.04962v-1.27882a7.997 7.997 0 0 1 7.98789-7.98789h1.997a8.16712 8.16712 0 0 1 7.98785 9.26671z"/><path d="m50.97127 24.01566v3.99394a.99849.99849 0 1 0 1.997 0v-3.99394a17.14645 17.14645 0 0 0 -18.55787-16.97413l1.29107-1.29113a.99858.99858 0 0 0 -1.412-1.41186c-4.37465 4.531-4.38465 2.8665.00012 7.40277a.99854.99854 0 0 0 1.4118-1.412l-1.291-1.291a15.16276 15.16276 0 0 1 16.56088 14.97735z"/><path d="m29.71056 52.26578a.99854.99854 0 0 0 -1.41186 1.41192l1.29095 1.291h-1.58354a14.99428 14.99428 0 0 1 -14.97728-14.97727v-3.99394a.99861.99861 0 0 0 -1.997.00006v3.99388a17.14641 17.14641 0 0 0 18.55788 16.97407l-1.29107 1.29119a1.005 1.005 0 0 0 .706 1.70438.99489.99489 0 0 0 .7059-.29246l2.99546-2.99546a.99811.99811 0 0 0 0-1.41192z"/></svg>