<?xml version="1.0" encoding="utf-8"?>
<!-- Generator: Adobe Illustrator 22.0.1, SVG Export Plug-In . SVG Version: 6.00 Build 0)  -->
<svg version="1.1" id="Layer_1" xmlns="http://www.w3.org/2000/svg" xmlns:xlink="http://www.w3.org/1999/xlink" x="0px" y="0px"
	 viewBox="0 0 80 20" style="enable-background:new 0 0 80 20;" xml:space="preserve">
<style type="text/css">
	.st0{clip-path:url(#SVGID_2_);}
	.st1{fill:#BEBBFA;}
	.st2{fill:#F698B2;}
	.st3{fill:#D576AF;}
	.st4{fill:#ADD6FC;}
	.st5{fill:#8CB4F9;}
	.st6{fill:#A8A2D5;}
	.st7{fill:#9891D4;}
	.st8{fill:#282F46;}
</style>
<g>
	<g>
		<defs>
			<rect id="SVGID_1_" y="1.7" width="17.5" height="16.7"/>
		</defs>
		<clipPath id="SVGID_2_">
			<use xlink:href="#SVGID_1_"  style="overflow:visible;"/>
		</clipPath>
		<g class="st0">
			<path class="st1" d="M6.8,7.6c0,0.1,0,0.3,0.1,0.4C6,8.3,5.2,8.9,4.6,9.6c-0.6,0.7-0.9,1.6-1.1,2.5C1.7,11.4,0.3,9.7,0,7.6
				c-0.3-3,1.8-5.6,4.8-5.9C6.2,1.5,7.6,2,8.7,2.8C7.4,4,6.5,5.7,6.8,7.6z"/>
			<path class="st2" d="M9.4,18.3c-3,0.3-5.6-1.8-5.9-4.8c-0.1-0.5,0-1,0-1.4c0.9,0.3,1.8,0.4,2.7,0.2c0.9-0.2,1.8-0.5,2.5-1.1
				c0.8,0.6,1.7,1,2.6,1.1c1,0.1,1.9,0,2.8-0.4c0,0.1,0,0.2,0.1,0.4C14.5,15.3,12.4,18,9.4,18.3z"/>
			<path class="st3" d="M8.7,11.2c-0.7,0.6-1.6,1-2.5,1.1c-0.9,0.2-1.8,0.1-2.7-0.2c0.1-0.9,0.5-1.8,1.1-2.5C5.2,8.9,6,8.3,6.8,8
				C7,9.3,7.7,10.4,8.7,11.2z"/>
			<path class="st4" d="M14.2,12c-0.3-1.9-1.7-3.5-3.5-4.1c0.1-0.9,0-1.9-0.3-2.8C10,4.2,9.5,3.4,8.7,2.8c0.8-0.6,1.8-1,2.8-1.1
				c3-0.3,5.6,1.8,5.9,4.8C17.7,8.9,16.3,11.1,14.2,12z"/>
			<path class="st5" d="M10.7,7.9C9.4,7.4,8,7.5,6.8,8c0-0.1,0-0.2-0.1-0.4C6.5,5.7,7.4,4,8.7,2.8c0.7,0.6,1.3,1.4,1.7,2.3
				C10.7,6,10.8,7,10.7,7.9z"/>
			<path class="st6" d="M14.2,12c-0.9,0.4-1.9,0.5-2.8,0.4c-1-0.1-1.9-0.5-2.6-1.1c1-0.8,1.7-2,1.9-3.3C12.5,8.5,13.8,10.1,14.2,12z
				"/>
			<path class="st7" d="M10.7,7.9c-0.2,1.3-0.9,2.5-1.9,3.3c-1-0.8-1.7-2-1.9-3.2C8,7.5,9.4,7.4,10.7,7.9z"/>
		</g>
	</g>
	<path class="st8" d="M28.3,16L23.4,4.8h2.3l4.4,10.2h-1.3l4.4-10.2h2.1L30.4,16H28.3z M39.7,16V4.8h2.1V16H39.7z M51.5,16.2
		c-0.9,0-1.7-0.1-2.5-0.4c-0.8-0.3-1.4-0.6-1.9-1l0.7-1.6c0.4,0.4,1,0.6,1.7,0.9c0.7,0.2,1.3,0.4,2,0.4c0.6,0,1.1-0.1,1.4-0.2
		c0.4-0.1,0.6-0.3,0.8-0.5c0.2-0.2,0.3-0.5,0.3-0.8c0-0.3-0.1-0.6-0.4-0.8c-0.2-0.2-0.6-0.4-1-0.5c-0.4-0.1-0.8-0.2-1.3-0.4
		c-0.5-0.1-0.9-0.2-1.4-0.4c-0.5-0.1-0.9-0.3-1.3-0.6c-0.4-0.2-0.7-0.5-0.9-0.9C47.5,9,47.3,8.6,47.3,8c0-0.6,0.2-1.2,0.5-1.7
		c0.3-0.5,0.8-0.9,1.5-1.2c0.7-0.3,1.5-0.5,2.6-0.5c0.7,0,1.3,0.1,2,0.3c0.7,0.2,1.2,0.4,1.7,0.7l-0.7,1.6c-0.5-0.3-1-0.5-1.6-0.7
		c-0.5-0.1-1-0.2-1.5-0.2c-0.6,0-1,0.1-1.4,0.2c-0.4,0.1-0.6,0.3-0.8,0.5c-0.2,0.2-0.2,0.5-0.2,0.8c0,0.3,0.1,0.6,0.4,0.8
		c0.2,0.2,0.6,0.4,0.9,0.5c0.4,0.1,0.8,0.2,1.3,0.4c0.5,0.1,1,0.2,1.4,0.4c0.5,0.1,0.9,0.3,1.3,0.5c0.4,0.2,0.7,0.5,0.9,0.9
		c0.2,0.4,0.4,0.9,0.4,1.5c0,0.6-0.2,1.2-0.5,1.7c-0.3,0.5-0.8,0.9-1.5,1.2C53.4,16,52.6,16.2,51.5,16.2z M61.4,16V4.8h2.1V16H61.4z
		 M71.6,9.4h5.6v1.7h-5.6V9.4z M71.8,14.2h6.3V16h-8.4V4.8h8.2v1.8h-6.1V14.2z"/>
</g>
</svg>
