<svg xmlns="http://www.w3.org/2000/svg" xmlns:xlink="http://www.w3.org/1999/xlink" width="1920" zoomAndPan="magnify" viewBox="0 0 1440 809.999993" height="1080" preserveAspectRatio="xMidYMid meet" version="1.0"><defs><clipPath id="84550eb284"><path d="M 105 425.675781 L 116 425.675781 L 116 436 L 105 436 Z M 105 425.675781 " clip-rule="nonzero"/></clipPath><clipPath id="692edd109b"><path d="M 514 740 L 524.488281 740 L 524.488281 751 L 514 751 Z M 514 740 " clip-rule="nonzero"/></clipPath><clipPath id="b454eb68f5"><path d="M 1106.492188 182 L 1344 182 L 1344 466 L 1106.492188 466 Z M 1106.492188 182 " clip-rule="nonzero"/></clipPath><clipPath id="4a168e1c8b"><path d="M 1352 717 L 1440 717 L 1440 770.25 L 1352 770.25 Z M 1352 717 " clip-rule="nonzero"/></clipPath></defs><rect x="-144" width="1728" fill="#ffffff" y="-80.999999" height="971.999992" fill-opacity="1"/><rect x="-144" width="1728" fill="#fdfdfd" y="-80.999999" height="971.999992" fill-opacity="1"/><path fill="#000000" d="M 173.179688 12.226562 L 52.261719 12.226562 C 51.199219 12.226562 50.335938 11.363281 50.335938 10.296875 C 50.335938 9.230469 51.199219 8.367188 52.261719 8.367188 L 173.179688 8.367188 C 174.246094 8.367188 175.109375 9.230469 175.109375 10.296875 C 175.109375 11.363281 174.246094 12.226562 173.179688 12.226562 Z M 173.179688 12.226562 " fill-opacity="1" fill-rule="nonzero"/><path fill="#000000" d="M 53.625 11.660156 L 13.320312 51.996094 C 12.566406 52.75 11.347656 52.75 10.59375 51.996094 C 9.839844 51.242188 9.839844 50.019531 10.59375 49.265625 L 50.898438 8.933594 C 51.652344 8.179688 52.871094 8.179688 53.625 8.933594 C 54.378906 9.6875 54.378906 10.90625 53.625 11.660156 Z M 53.625 11.660156 " fill-opacity="1" fill-rule="nonzero"/><path fill="#000000" d="M -229.878906 48.703125 L 52.261719 48.703125 C 53.328125 48.703125 54.191406 49.566406 54.191406 50.628906 C 54.191406 51.695312 53.328125 52.558594 52.261719 52.558594 L -229.878906 52.558594 C -230.945312 52.558594 -231.808594 51.695312 -231.808594 50.632812 C -231.808594 49.566406 -230.945312 48.703125 -229.878906 48.703125 Z M -229.878906 48.703125 " fill-opacity="1" fill-rule="nonzero"/><path fill="#000000" d="M 53.625 49.265625 L 134.238281 129.9375 C 134.992188 130.6875 134.992188 131.910156 134.238281 132.664062 C 133.484375 133.417969 132.265625 133.417969 131.511719 132.664062 L 50.898438 51.996094 C 50.148438 51.242188 50.148438 50.019531 50.898438 49.265625 C 51.652344 48.511719 52.871094 48.511719 53.625 49.265625 Z M 53.625 49.265625 " fill-opacity="1" fill-rule="nonzero"/><path fill="#000000" d="M 132.875 129.371094 L 213.488281 129.371094 C 214.550781 129.371094 215.414062 130.234375 215.414062 131.300781 C 215.414062 132.367188 214.550781 133.230469 213.488281 133.230469 L 132.875 133.230469 C 131.808594 133.230469 130.949219 132.367188 130.949219 131.300781 C 130.949219 130.234375 131.808594 129.371094 132.875 129.371094 Z M 132.875 129.371094 " fill-opacity="1" fill-rule="nonzero"/><path fill="#000000" d="M 91.207031 89.601562 L 131.511719 49.265625 C 132.265625 48.511719 133.484375 48.511719 134.238281 49.265625 C 134.992188 50.019531 134.992188 51.242188 134.238281 51.996094 L 93.929688 92.328125 C 93.179688 93.082031 91.957031 93.082031 91.207031 92.328125 C 90.453125 91.574219 90.453125 90.355469 91.207031 89.601562 Z M 91.207031 89.601562 " fill-opacity="1" fill-rule="nonzero"/><path fill="#000000" d="M 132.875 48.703125 L 253.792969 48.703125 C 254.859375 48.703125 255.71875 49.566406 255.71875 50.628906 C 255.71875 51.695312 254.859375 52.558594 253.792969 52.558594 L 132.875 52.558594 C 131.808594 52.558594 130.949219 51.695312 130.949219 50.628906 C 130.949219 49.566406 131.808594 48.703125 132.875 48.703125 Z M 132.875 48.703125 " fill-opacity="1" fill-rule="nonzero"/><path fill="#000000" d="M -229.878906 89.035156 L 52.261719 89.039062 C 53.328125 89.039062 54.191406 89.902344 54.191406 90.964844 C 54.191406 92.03125 53.328125 92.894531 52.261719 92.894531 L -229.878906 92.894531 C -230.945312 92.894531 -231.808594 92.03125 -231.808594 90.964844 C -231.808594 89.898438 -230.945312 89.035156 -229.878906 89.035156 Z M -229.878906 89.035156 " fill-opacity="1" fill-rule="nonzero"/><path fill="#000000" d="M 53.625 89.601562 L 134.238281 170.269531 C 134.992188 171.023438 134.992188 172.246094 134.238281 173 C 133.484375 173.75 132.265625 173.75 131.511719 173 L 50.898438 92.328125 C 50.148438 91.574219 50.148438 90.355469 50.898438 89.601562 C 51.652344 88.847656 52.871094 88.847656 53.625 89.601562 Z M 53.625 89.601562 " fill-opacity="1" fill-rule="nonzero"/><path fill="#000000" d="M 132.875 169.707031 L 294.097656 169.707031 C 295.164062 169.707031 296.027344 170.570312 296.027344 171.636719 C 296.027344 172.699219 295.164062 173.5625 294.097656 173.5625 L 132.875 173.5625 C 131.808594 173.5625 130.949219 172.699219 130.949219 171.632812 C 130.949219 170.570312 131.808594 169.707031 132.875 169.707031 Z M 132.875 169.707031 " fill-opacity="1" fill-rule="nonzero"/><path fill="#000000" d="M 212.125 170.269531 L 252.429688 129.9375 C 253.183594 129.183594 254.402344 129.183594 255.15625 129.9375 C 255.910156 130.6875 255.910156 131.910156 255.15625 132.664062 L 214.851562 173 C 214.097656 173.75 212.875 173.75 212.125 173 C 211.371094 172.246094 211.371094 171.023438 212.125 170.269531 Z M 212.125 170.269531 " fill-opacity="1" fill-rule="nonzero"/><path fill="#000000" d="M 253.792969 129.371094 L 334.40625 129.371094 C 335.46875 129.371094 336.332031 130.234375 336.332031 131.300781 C 336.332031 132.367188 335.46875 133.230469 334.40625 133.230469 L 253.792969 133.230469 C 252.726562 133.230469 251.867188 132.367188 251.867188 131.300781 C 251.867188 130.234375 252.726562 129.371094 253.792969 129.371094 Z M 253.792969 129.371094 " fill-opacity="1" fill-rule="nonzero"/><path fill="#000000" d="M -28.351562 169.707031 L 52.261719 169.707031 C 53.328125 169.707031 54.191406 170.570312 54.191406 171.632812 C 54.191406 172.699219 53.328125 173.5625 52.261719 173.5625 L -28.351562 173.5625 C -29.414062 173.5625 -30.277344 172.699219 -30.277344 171.632812 C -30.277344 170.570312 -29.414062 169.707031 -28.351562 169.707031 Z M -28.351562 169.707031 " fill-opacity="1" fill-rule="nonzero"/><path fill="#000000" d="M 263.246094 51.210938 L 263.246094 51.214844 C 262.925781 56.4375 258.433594 60.414062 253.210938 60.09375 C 247.988281 59.769531 244.019531 55.273438 244.339844 50.050781 C 244.660156 44.824219 249.152344 40.847656 254.375 41.167969 C 259.59375 41.492188 263.570312 45.988281 263.246094 51.210938 Z M 263.246094 51.210938 " fill-opacity="1" fill-rule="nonzero"/><path fill="#000000" d="M 222.941406 131.882812 C 222.621094 137.109375 218.128906 141.082031 212.90625 140.761719 C 207.683594 140.441406 203.710938 135.945312 204.03125 130.71875 C 204.355469 125.492188 208.847656 121.519531 214.070312 121.839844 C 219.289062 122.160156 223.261719 126.65625 222.941406 131.882812 Z M 222.941406 131.882812 " fill-opacity="1" fill-rule="nonzero"/><path fill="#000000" d="M 303.554688 172.214844 L 303.554688 172.21875 C 303.234375 177.441406 298.738281 181.417969 293.519531 181.097656 C 288.296875 180.773438 284.324219 176.277344 284.644531 171.054688 C 284.964844 165.828125 289.460938 161.851562 294.679688 162.171875 C 299.902344 162.496094 303.875 166.992188 303.554688 172.214844 Z M 303.554688 172.214844 " fill-opacity="1" fill-rule="nonzero"/><path fill="#000000" d="M 343.859375 131.882812 C 343.539062 137.109375 339.046875 141.082031 333.824219 140.761719 C 328.601562 140.441406 324.628906 135.945312 324.949219 130.71875 C 325.273438 125.492188 329.765625 121.519531 334.988281 121.839844 C 340.207031 122.160156 344.179688 126.65625 343.859375 131.882812 Z M 343.859375 131.882812 " fill-opacity="1" fill-rule="nonzero"/><path fill="#000000" d="M 193.492188 11.507812 C 193.09375 17.140625 188.207031 21.382812 182.582031 20.980469 C 176.953125 20.582031 172.714844 15.695312 173.113281 10.0625 C 173.511719 4.433594 178.398438 0.191406 184.027344 0.589844 C 189.652344 0.988281 193.890625 5.878906 193.492188 11.507812 M 189.4375 11.222656 C 189.675781 7.832031 187.125 4.890625 183.738281 4.648438 C 180.351562 4.410156 177.410156 6.960938 177.171875 10.351562 C 176.929688 13.742188 179.480469 16.683594 182.867188 16.921875 C 186.253906 17.164062 189.195312 14.609375 189.4375 11.222656 Z M 189.4375 11.222656 " fill-opacity="1" fill-rule="nonzero"/><path fill="#000000" d="M 72.199219 172.863281 C 71.800781 178.496094 66.917969 182.738281 61.289062 182.339844 C 55.664062 181.9375 51.425781 177.050781 51.824219 171.417969 C 52.222656 165.789062 57.105469 161.546875 62.734375 161.945312 C 68.363281 162.34375 72.601562 167.234375 72.199219 172.863281 M 68.144531 172.578125 C 68.386719 169.1875 65.835938 166.246094 62.445312 166.003906 C 59.058594 165.765625 56.121094 168.316406 55.878906 171.707031 C 55.640625 175.097656 58.191406 178.039062 61.578125 178.277344 C 64.964844 178.519531 67.90625 175.964844 68.144531 172.578125 Z M 68.144531 172.578125 " fill-opacity="1" fill-rule="nonzero"/><path fill="#00ffff" d="M -77.671875 933.941406 L -79.324219 933.941406 L -79.324219 807.773438 L -79.082031 807.527344 L 15.324219 713.15625 L 16.488281 714.328125 L -77.671875 808.457031 Z M -77.671875 933.941406 " fill-opacity="1" fill-rule="nonzero"/><path fill="#00ffff" d="M -77.910156 745.78125 L -79.082031 744.617188 L 15.566406 650 L 78.496094 650 L 141.191406 587.332031 L 142.359375 588.496094 L 79.179688 651.652344 L 16.25 651.652344 Z M -77.910156 745.78125 " fill-opacity="1" fill-rule="nonzero"/><path fill="#00ffff" d="M -77.910156 714.328125 L -79.082031 713.15625 L 15.078125 619.027344 L 15.078125 556.113281 L 78.257812 492.957031 L 79.425781 494.125 L 16.730469 556.796875 L 16.730469 619.714844 Z M -77.910156 714.328125 " fill-opacity="1" fill-rule="nonzero"/><path fill="#00ffff" d="M -46.445312 934.523438 L -47.613281 933.359375 L 47.03125 838.746094 L 172.902344 838.746094 L 267.0625 744.617188 L 268.230469 745.78125 L 173.585938 840.394531 L 47.714844 840.394531 Z M -46.445312 934.523438 " fill-opacity="1" fill-rule="nonzero"/><path fill="#00ffff" d="M 47.714844 934.765625 L -15.5625 934.765625 L -15.5625 933.113281 L 47.03125 933.113281 L 109.964844 870.203125 L 235.835938 870.203125 L 361.464844 744.617188 L 362.632812 745.78125 L 236.519531 871.855469 L 110.648438 871.855469 Z M 47.714844 934.765625 " fill-opacity="1" fill-rule="nonzero"/><path fill="#00ffff" d="M -46.445312 903.066406 L -47.613281 901.902344 L 78.015625 776.316406 L 78.015625 713.398438 L 141.191406 650.242188 L 142.359375 651.410156 L 79.667969 714.082031 L 79.667969 777 Z M -46.445312 903.066406 " fill-opacity="1" fill-rule="nonzero"/><path fill="#00ffff" d="M -77.671875 682.285156 L -79.324219 682.285156 L -79.324219 556.113281 L -79.082031 555.871094 L 15.324219 461.5 L 16.488281 462.667969 L -77.671875 556.796875 Z M -77.671875 682.285156 " fill-opacity="1" fill-rule="nonzero"/><path fill="#00ffff" d="M -46.203125 650.828125 L -47.855469 650.828125 L -47.855469 587.570312 L -47.613281 587.332031 L 109.722656 430.046875 L 110.890625 431.210938 L -46.203125 588.253906 Z M -46.203125 650.828125 " fill-opacity="1" fill-rule="nonzero"/><path fill="#00ffff" d="M -46.445312 840.15625 L -47.613281 838.984375 L 46.546875 744.855469 L 46.546875 682.285156 L 48.199219 682.285156 L 48.199219 745.539062 L 47.957031 745.78125 Z M -46.445312 840.15625 " fill-opacity="1" fill-rule="nonzero"/><path fill="#00ffff" d="M 110.890625 808.699219 L 109.722656 807.527344 L 235.351562 681.941406 L 235.351562 619.027344 L 267.0625 587.332031 L 268.230469 588.496094 L 237.003906 619.714844 L 237.003906 682.625 Z M 110.890625 808.699219 " fill-opacity="1" fill-rule="nonzero"/><path fill="#00ffff" d="M 267.988281 934.765625 L 78.839844 934.765625 L 78.839844 933.113281 L 267.304688 933.113281 L 361.707031 838.746094 L 424.640625 838.746094 L 518.800781 744.617188 L 519.96875 745.78125 L 425.324219 840.394531 L 362.390625 840.394531 Z M 267.988281 934.765625 " fill-opacity="1" fill-rule="nonzero"/><path fill="#00ffff" d="M 362.875 839.570312 L 361.222656 839.570312 L 361.222656 807.773438 L 455.867188 713.15625 L 457.035156 714.328125 L 362.875 808.457031 Z M 362.875 839.570312 " fill-opacity="1" fill-rule="nonzero"/><path fill="#00ffff" d="M 110.890625 745.78125 L 109.722656 744.617188 L 203.882812 650.488281 L 203.882812 556.113281 L 235.59375 524.414062 L 236.761719 525.585938 L 205.535156 556.796875 L 205.535156 651.171875 Z M 110.890625 745.78125 " fill-opacity="1" fill-rule="nonzero"/><path fill="#00ffff" d="M 272.601562 745.199219 C 272.601562 745.527344 272.570312 745.847656 272.507812 746.167969 C 272.445312 746.484375 272.351562 746.796875 272.226562 747.097656 C 272.101562 747.398438 271.949219 747.683594 271.765625 747.953125 C 271.585938 748.222656 271.382812 748.472656 271.152344 748.703125 C 270.921875 748.933594 270.671875 749.140625 270.398438 749.320312 C 270.128906 749.5 269.84375 749.652344 269.542969 749.777344 C 269.242188 749.902344 268.933594 749.996094 268.613281 750.058594 C 268.292969 750.125 267.972656 750.15625 267.648438 750.15625 C 267.320312 750.15625 267 750.125 266.679688 750.058594 C 266.359375 749.996094 266.050781 749.902344 265.75 749.777344 C 265.449219 749.652344 265.164062 749.5 264.894531 749.320312 C 264.621094 749.140625 264.371094 748.933594 264.140625 748.703125 C 263.910156 748.472656 263.707031 748.222656 263.527344 747.953125 C 263.34375 747.683594 263.191406 747.398438 263.066406 747.097656 C 262.941406 746.796875 262.847656 746.484375 262.785156 746.167969 C 262.722656 745.847656 262.691406 745.527344 262.691406 745.199219 C 262.691406 744.875 262.722656 744.554688 262.785156 744.234375 C 262.847656 743.914062 262.941406 743.605469 263.066406 743.304688 C 263.191406 743.003906 263.34375 742.71875 263.527344 742.449219 C 263.707031 742.175781 263.910156 741.925781 264.140625 741.695312 C 264.371094 741.46875 264.621094 741.261719 264.894531 741.082031 C 265.164062 740.898438 265.449219 740.746094 265.75 740.625 C 266.050781 740.5 266.359375 740.40625 266.679688 740.339844 C 267 740.277344 267.320312 740.246094 267.648438 740.246094 C 267.972656 740.246094 268.292969 740.277344 268.613281 740.339844 C 268.933594 740.40625 269.242188 740.5 269.542969 740.625 C 269.84375 740.746094 270.128906 740.898438 270.398438 741.082031 C 270.671875 741.261719 270.921875 741.46875 271.152344 741.695312 C 271.382812 741.925781 271.585938 742.175781 271.765625 742.449219 C 271.949219 742.71875 272.101562 743.003906 272.226562 743.304688 C 272.351562 743.605469 272.445312 743.914062 272.507812 744.234375 C 272.570312 744.554688 272.601562 744.875 272.601562 745.199219 Z M 272.601562 745.199219 " fill-opacity="1" fill-rule="nonzero"/><path fill="#00ffff" d="M 367.003906 745.199219 C 367.003906 745.527344 366.972656 745.847656 366.910156 746.167969 C 366.84375 746.484375 366.75 746.796875 366.625 747.097656 C 366.503906 747.398438 366.347656 747.683594 366.167969 747.953125 C 365.988281 748.222656 365.78125 748.472656 365.550781 748.703125 C 365.320312 748.933594 365.070312 749.140625 364.800781 749.320312 C 364.53125 749.5 364.246094 749.652344 363.945312 749.777344 C 363.644531 749.902344 363.332031 749.996094 363.015625 750.058594 C 362.695312 750.125 362.375 750.15625 362.046875 750.15625 C 361.722656 750.15625 361.398438 750.125 361.082031 750.058594 C 360.761719 749.996094 360.453125 749.902344 360.152344 749.777344 C 359.851562 749.652344 359.566406 749.5 359.292969 749.320312 C 359.023438 749.140625 358.773438 748.933594 358.542969 748.703125 C 358.3125 748.472656 358.109375 748.222656 357.925781 747.953125 C 357.746094 747.683594 357.59375 747.398438 357.46875 747.097656 C 357.34375 746.796875 357.25 746.484375 357.1875 746.167969 C 357.125 745.847656 357.089844 745.527344 357.089844 745.199219 C 357.089844 744.875 357.125 744.554688 357.1875 744.234375 C 357.25 743.914062 357.34375 743.605469 357.46875 743.304688 C 357.59375 743.003906 357.746094 742.71875 357.925781 742.449219 C 358.109375 742.175781 358.3125 741.925781 358.542969 741.695312 C 358.773438 741.46875 359.023438 741.261719 359.292969 741.082031 C 359.566406 740.898438 359.851562 740.746094 360.152344 740.625 C 360.453125 740.5 360.761719 740.40625 361.082031 740.339844 C 361.398438 740.277344 361.722656 740.246094 362.046875 740.246094 C 362.375 740.246094 362.695312 740.277344 363.015625 740.339844 C 363.332031 740.40625 363.644531 740.5 363.945312 740.625 C 364.246094 740.746094 364.53125 740.898438 364.800781 741.082031 C 365.070312 741.261719 365.320312 741.46875 365.550781 741.695312 C 365.78125 741.925781 365.988281 742.175781 366.167969 742.449219 C 366.347656 742.71875 366.503906 743.003906 366.625 743.304688 C 366.75 743.605469 366.84375 743.914062 366.910156 744.234375 C 366.972656 744.554688 367.003906 744.875 367.003906 745.199219 Z M 367.003906 745.199219 " fill-opacity="1" fill-rule="nonzero"/><path fill="#00ffff" d="M 461.410156 713.742188 C 461.410156 714.066406 461.375 714.390625 461.3125 714.710938 C 461.25 715.027344 461.15625 715.339844 461.03125 715.640625 C 460.90625 715.9375 460.753906 716.226562 460.574219 716.496094 C 460.390625 716.765625 460.1875 717.015625 459.957031 717.246094 C 459.726562 717.476562 459.476562 717.679688 459.207031 717.863281 C 458.933594 718.042969 458.648438 718.195312 458.347656 718.320312 C 458.046875 718.445312 457.738281 718.539062 457.417969 718.601562 C 457.101562 718.664062 456.777344 718.695312 456.453125 718.695312 C 456.125 718.695312 455.804688 718.664062 455.484375 718.601562 C 455.167969 718.539062 454.855469 718.445312 454.554688 718.320312 C 454.253906 718.195312 453.96875 718.042969 453.699219 717.863281 C 453.429688 717.679688 453.179688 717.476562 452.949219 717.246094 C 452.71875 717.015625 452.511719 716.765625 452.332031 716.496094 C 452.152344 716.226562 451.996094 715.9375 451.875 715.640625 C 451.75 715.339844 451.65625 715.027344 451.589844 714.710938 C 451.527344 714.390625 451.496094 714.066406 451.496094 713.742188 C 451.496094 713.417969 451.527344 713.09375 451.589844 712.777344 C 451.65625 712.457031 451.75 712.148438 451.875 711.847656 C 451.996094 711.546875 452.152344 711.261719 452.332031 710.988281 C 452.511719 710.71875 452.71875 710.46875 452.949219 710.238281 C 453.179688 710.007812 453.429688 709.804688 453.699219 709.625 C 453.96875 709.441406 454.253906 709.289062 454.554688 709.164062 C 454.855469 709.039062 455.167969 708.945312 455.484375 708.882812 C 455.804688 708.820312 456.125 708.789062 456.453125 708.789062 C 456.777344 708.789062 457.101562 708.820312 457.417969 708.882812 C 457.738281 708.945312 458.046875 709.039062 458.347656 709.164062 C 458.648438 709.289062 458.933594 709.441406 459.207031 709.625 C 459.476562 709.804688 459.726562 710.007812 459.957031 710.238281 C 460.1875 710.46875 460.390625 710.71875 460.574219 710.988281 C 460.753906 711.261719 460.90625 711.546875 461.03125 711.847656 C 461.15625 712.148438 461.25 712.457031 461.3125 712.777344 C 461.375 713.09375 461.410156 713.417969 461.410156 713.742188 Z M 461.410156 713.742188 " fill-opacity="1" fill-rule="nonzero"/><path fill="#00ffff" d="M 272.601562 587.914062 C 272.601562 588.242188 272.570312 588.5625 272.507812 588.882812 C 272.445312 589.199219 272.351562 589.511719 272.226562 589.8125 C 272.101562 590.113281 271.949219 590.398438 271.765625 590.667969 C 271.585938 590.9375 271.382812 591.1875 271.152344 591.417969 C 270.921875 591.648438 270.671875 591.855469 270.398438 592.035156 C 270.128906 592.214844 269.84375 592.367188 269.542969 592.492188 C 269.242188 592.617188 268.933594 592.710938 268.613281 592.773438 C 268.292969 592.835938 267.972656 592.871094 267.648438 592.871094 C 267.320312 592.871094 267 592.835938 266.679688 592.773438 C 266.359375 592.710938 266.050781 592.617188 265.75 592.492188 C 265.449219 592.367188 265.164062 592.214844 264.894531 592.035156 C 264.621094 591.855469 264.371094 591.648438 264.140625 591.417969 C 263.910156 591.1875 263.707031 590.9375 263.527344 590.667969 C 263.34375 590.398438 263.191406 590.113281 263.066406 589.8125 C 262.941406 589.511719 262.847656 589.199219 262.785156 588.882812 C 262.722656 588.5625 262.691406 588.242188 262.691406 587.914062 C 262.691406 587.589844 262.722656 587.265625 262.785156 586.949219 C 262.847656 586.628906 262.941406 586.320312 263.066406 586.019531 C 263.191406 585.71875 263.34375 585.433594 263.527344 585.164062 C 263.707031 584.890625 263.910156 584.640625 264.140625 584.410156 C 264.371094 584.179688 264.621094 583.976562 264.894531 583.796875 C 265.164062 583.613281 265.449219 583.460938 265.75 583.335938 C 266.050781 583.214844 266.359375 583.121094 266.679688 583.054688 C 267 582.992188 267.320312 582.960938 267.648438 582.960938 C 267.972656 582.960938 268.292969 582.992188 268.613281 583.054688 C 268.933594 583.121094 269.242188 583.214844 269.542969 583.335938 C 269.84375 583.460938 270.128906 583.613281 270.398438 583.796875 C 270.671875 583.976562 270.921875 584.179688 271.152344 584.410156 C 271.382812 584.640625 271.585938 584.890625 271.765625 585.164062 C 271.949219 585.433594 272.101562 585.71875 272.226562 586.019531 C 272.351562 586.320312 272.445312 586.628906 272.507812 586.949219 C 272.570312 587.265625 272.601562 587.589844 272.601562 587.914062 Z M 272.601562 587.914062 " fill-opacity="1" fill-rule="nonzero"/><path fill="#00ffff" d="M 146.730469 650.828125 C 146.730469 651.152344 146.699219 651.476562 146.636719 651.792969 C 146.570312 652.113281 146.476562 652.421875 146.351562 652.722656 C 146.226562 653.023438 146.074219 653.308594 145.894531 653.578125 C 145.714844 653.851562 145.507812 654.101562 145.277344 654.332031 C 145.046875 654.5625 144.796875 654.765625 144.527344 654.945312 C 144.257812 655.128906 143.972656 655.28125 143.671875 655.40625 C 143.371094 655.527344 143.058594 655.621094 142.742188 655.6875 C 142.421875 655.75 142.097656 655.78125 141.773438 655.78125 C 141.449219 655.78125 141.125 655.75 140.808594 655.6875 C 140.488281 655.621094 140.179688 655.527344 139.878906 655.40625 C 139.578125 655.28125 139.292969 655.128906 139.019531 654.945312 C 138.75 654.765625 138.5 654.5625 138.269531 654.332031 C 138.039062 654.101562 137.835938 653.851562 137.652344 653.578125 C 137.472656 653.308594 137.320312 653.023438 137.195312 652.722656 C 137.070312 652.421875 136.976562 652.113281 136.914062 651.792969 C 136.851562 651.476562 136.816406 651.152344 136.816406 650.828125 C 136.816406 650.5 136.851562 650.179688 136.914062 649.859375 C 136.976562 649.542969 137.070312 649.230469 137.195312 648.929688 C 137.320312 648.628906 137.472656 648.34375 137.652344 648.074219 C 137.835938 647.804688 138.039062 647.554688 138.269531 647.324219 C 138.5 647.09375 138.75 646.886719 139.019531 646.707031 C 139.292969 646.527344 139.578125 646.375 139.878906 646.25 C 140.179688 646.125 140.488281 646.03125 140.808594 645.96875 C 141.125 645.90625 141.449219 645.871094 141.773438 645.871094 C 142.097656 645.871094 142.421875 645.90625 142.742188 645.96875 C 143.058594 646.03125 143.371094 646.125 143.671875 646.25 C 143.972656 646.375 144.257812 646.527344 144.527344 646.707031 C 144.796875 646.886719 145.046875 647.09375 145.277344 647.324219 C 145.507812 647.554688 145.714844 647.804688 145.894531 648.074219 C 146.074219 648.34375 146.226562 648.628906 146.351562 648.929688 C 146.476562 649.230469 146.570312 649.542969 146.636719 649.859375 C 146.699219 650.179688 146.730469 650.5 146.730469 650.828125 Z M 146.730469 650.828125 " fill-opacity="1" fill-rule="nonzero"/><path fill="#00ffff" d="M 20.859375 462.085938 C 20.859375 462.410156 20.828125 462.730469 20.765625 463.050781 C 20.703125 463.371094 20.609375 463.679688 20.484375 463.980469 C 20.359375 464.28125 20.207031 464.566406 20.027344 464.835938 C 19.84375 465.105469 19.640625 465.355469 19.410156 465.585938 C 19.179688 465.816406 18.929688 466.023438 18.660156 466.203125 C 18.386719 466.382812 18.101562 466.535156 17.800781 466.660156 C 17.5 466.785156 17.191406 466.878906 16.871094 466.941406 C 16.550781 467.007812 16.230469 467.039062 15.90625 467.039062 C 15.578125 467.039062 15.257812 467.007812 14.9375 466.941406 C 14.617188 466.878906 14.308594 466.785156 14.007812 466.660156 C 13.707031 466.535156 13.421875 466.382812 13.152344 466.203125 C 12.878906 466.023438 12.628906 465.816406 12.398438 465.585938 C 12.171875 465.355469 11.964844 465.105469 11.785156 464.835938 C 11.601562 464.566406 11.449219 464.28125 11.324219 463.980469 C 11.203125 463.679688 11.105469 463.371094 11.042969 463.050781 C 10.980469 462.730469 10.949219 462.410156 10.949219 462.085938 C 10.949219 461.757812 10.980469 461.4375 11.042969 461.117188 C 11.105469 460.796875 11.203125 460.488281 11.324219 460.1875 C 11.449219 459.886719 11.601562 459.601562 11.785156 459.332031 C 11.964844 459.0625 12.171875 458.8125 12.398438 458.582031 C 12.628906 458.351562 12.878906 458.144531 13.152344 457.964844 C 13.421875 457.785156 13.707031 457.632812 14.007812 457.507812 C 14.308594 457.382812 14.617188 457.289062 14.9375 457.226562 C 15.257812 457.160156 15.578125 457.128906 15.90625 457.128906 C 16.230469 457.128906 16.550781 457.160156 16.871094 457.226562 C 17.191406 457.289062 17.5 457.382812 17.800781 457.507812 C 18.101562 457.632812 18.386719 457.785156 18.660156 457.964844 C 18.929688 458.144531 19.179688 458.351562 19.410156 458.582031 C 19.640625 458.8125 19.84375 459.0625 20.027344 459.332031 C 20.207031 459.601562 20.359375 459.886719 20.484375 460.1875 C 20.609375 460.488281 20.703125 460.796875 20.765625 461.117188 C 20.828125 461.4375 20.859375 461.757812 20.859375 462.085938 Z M 20.859375 462.085938 " fill-opacity="1" fill-rule="nonzero"/><path fill="#00ffff" d="M 241.132812 523.125 C 241.132812 523.453125 241.101562 523.773438 241.039062 524.09375 C 240.976562 524.414062 240.882812 524.722656 240.757812 525.023438 C 240.632812 525.324219 240.480469 525.609375 240.300781 525.878906 C 240.117188 526.148438 239.914062 526.398438 239.683594 526.628906 C 239.453125 526.859375 239.203125 527.066406 238.933594 527.246094 C 238.660156 527.425781 238.375 527.578125 238.074219 527.703125 C 237.773438 527.828125 237.464844 527.921875 237.144531 527.984375 C 236.828125 528.050781 236.503906 528.082031 236.179688 528.082031 C 235.851562 528.082031 235.53125 528.050781 235.210938 527.984375 C 234.890625 527.921875 234.582031 527.828125 234.28125 527.703125 C 233.980469 527.578125 233.695312 527.425781 233.425781 527.246094 C 233.15625 527.066406 232.902344 526.859375 232.675781 526.628906 C 232.445312 526.398438 232.238281 526.148438 232.058594 525.878906 C 231.875 525.609375 231.722656 525.324219 231.601562 525.023438 C 231.476562 524.722656 231.382812 524.414062 231.316406 524.09375 C 231.253906 523.773438 231.222656 523.453125 231.222656 523.125 C 231.222656 522.800781 231.253906 522.480469 231.316406 522.160156 C 231.382812 521.839844 231.476562 521.53125 231.601562 521.230469 C 231.722656 520.929688 231.875 520.644531 232.058594 520.375 C 232.238281 520.105469 232.445312 519.851562 232.675781 519.625 C 232.902344 519.394531 233.15625 519.1875 233.425781 519.007812 C 233.695312 518.828125 233.980469 518.675781 234.28125 518.550781 C 234.582031 518.425781 234.890625 518.332031 235.210938 518.265625 C 235.53125 518.203125 235.851562 518.171875 236.179688 518.171875 C 236.503906 518.171875 236.828125 518.203125 237.144531 518.265625 C 237.464844 518.332031 237.773438 518.425781 238.074219 518.550781 C 238.375 518.675781 238.660156 518.828125 238.933594 519.007812 C 239.203125 519.1875 239.453125 519.394531 239.683594 519.625 C 239.914062 519.851562 240.117188 520.105469 240.300781 520.375 C 240.480469 520.644531 240.632812 520.929688 240.757812 521.230469 C 240.882812 521.53125 240.976562 521.839844 241.039062 522.160156 C 241.101562 522.480469 241.132812 522.800781 241.132812 523.125 Z M 241.132812 523.125 " fill-opacity="1" fill-rule="nonzero"/><path fill="#00ffff" d="M 146.730469 587.914062 C 146.730469 588.242188 146.699219 588.5625 146.636719 588.882812 C 146.570312 589.199219 146.476562 589.511719 146.351562 589.8125 C 146.226562 590.113281 146.074219 590.398438 145.894531 590.667969 C 145.714844 590.9375 145.507812 591.1875 145.277344 591.417969 C 145.046875 591.648438 144.796875 591.855469 144.527344 592.035156 C 144.257812 592.214844 143.972656 592.367188 143.671875 592.492188 C 143.371094 592.617188 143.058594 592.710938 142.742188 592.773438 C 142.421875 592.835938 142.097656 592.871094 141.773438 592.871094 C 141.449219 592.871094 141.125 592.835938 140.808594 592.773438 C 140.488281 592.710938 140.179688 592.617188 139.878906 592.492188 C 139.578125 592.367188 139.292969 592.214844 139.019531 592.035156 C 138.75 591.855469 138.5 591.648438 138.269531 591.417969 C 138.039062 591.1875 137.835938 590.9375 137.652344 590.667969 C 137.472656 590.398438 137.320312 590.113281 137.195312 589.8125 C 137.070312 589.511719 136.976562 589.199219 136.914062 588.882812 C 136.851562 588.5625 136.816406 588.242188 136.816406 587.914062 C 136.816406 587.589844 136.851562 587.265625 136.914062 586.949219 C 136.976562 586.628906 137.070312 586.320312 137.195312 586.019531 C 137.320312 585.71875 137.472656 585.433594 137.652344 585.164062 C 137.835938 584.890625 138.039062 584.640625 138.269531 584.410156 C 138.5 584.179688 138.75 583.976562 139.019531 583.796875 C 139.292969 583.613281 139.578125 583.460938 139.878906 583.335938 C 140.179688 583.214844 140.488281 583.121094 140.808594 583.054688 C 141.125 582.992188 141.449219 582.960938 141.773438 582.960938 C 142.097656 582.960938 142.421875 582.992188 142.742188 583.054688 C 143.058594 583.121094 143.371094 583.214844 143.671875 583.335938 C 143.972656 583.460938 144.257812 583.613281 144.527344 583.796875 C 144.796875 583.976562 145.046875 584.179688 145.277344 584.410156 C 145.507812 584.640625 145.714844 584.890625 145.894531 585.164062 C 146.074219 585.433594 146.226562 585.71875 146.351562 586.019531 C 146.476562 586.320312 146.570312 586.628906 146.636719 586.949219 C 146.699219 587.265625 146.730469 587.589844 146.730469 587.914062 Z M 146.730469 587.914062 " fill-opacity="1" fill-rule="nonzero"/><path fill="#00ffff" d="M 83.796875 493.542969 C 83.796875 493.867188 83.765625 494.1875 83.703125 494.507812 C 83.636719 494.828125 83.542969 495.136719 83.421875 495.4375 C 83.296875 495.738281 83.144531 496.023438 82.960938 496.292969 C 82.78125 496.566406 82.574219 496.816406 82.34375 497.046875 C 82.117188 497.273438 81.863281 497.480469 81.59375 497.660156 C 81.324219 497.84375 81.039062 497.996094 80.738281 498.121094 C 80.4375 498.242188 80.128906 498.335938 79.808594 498.402344 C 79.488281 498.464844 79.167969 498.496094 78.839844 498.496094 C 78.515625 498.496094 78.191406 498.464844 77.875 498.402344 C 77.554688 498.335938 77.246094 498.242188 76.945312 498.121094 C 76.644531 497.996094 76.359375 497.84375 76.085938 497.660156 C 75.816406 497.480469 75.566406 497.273438 75.335938 497.046875 C 75.105469 496.816406 74.902344 496.566406 74.71875 496.292969 C 74.539062 496.023438 74.386719 495.738281 74.261719 495.4375 C 74.136719 495.136719 74.042969 494.828125 73.980469 494.507812 C 73.917969 494.1875 73.886719 493.867188 73.886719 493.542969 C 73.886719 493.214844 73.917969 492.894531 73.980469 492.574219 C 74.042969 492.257812 74.136719 491.945312 74.261719 491.644531 C 74.386719 491.34375 74.539062 491.058594 74.71875 490.789062 C 74.902344 490.519531 75.105469 490.269531 75.335938 490.039062 C 75.566406 489.808594 75.816406 489.601562 76.085938 489.421875 C 76.359375 489.242188 76.644531 489.089844 76.945312 488.964844 C 77.246094 488.839844 77.554688 488.746094 77.875 488.683594 C 78.191406 488.617188 78.515625 488.585938 78.839844 488.585938 C 79.167969 488.585938 79.488281 488.617188 79.808594 488.683594 C 80.128906 488.746094 80.4375 488.839844 80.738281 488.964844 C 81.039062 489.089844 81.324219 489.242188 81.59375 489.421875 C 81.863281 489.601562 82.117188 489.808594 82.34375 490.039062 C 82.574219 490.269531 82.78125 490.519531 82.960938 490.789062 C 83.144531 491.058594 83.296875 491.34375 83.421875 491.644531 C 83.542969 491.945312 83.636719 492.257812 83.703125 492.574219 C 83.765625 492.894531 83.796875 493.214844 83.796875 493.542969 Z M 83.796875 493.542969 " fill-opacity="1" fill-rule="nonzero"/><g clip-path="url(#84550eb284)"><path fill="#00ffff" d="M 115.265625 430.628906 C 115.265625 430.953125 115.234375 431.277344 115.171875 431.597656 C 115.105469 431.914062 115.011719 432.226562 114.886719 432.527344 C 114.761719 432.824219 114.609375 433.113281 114.429688 433.382812 C 114.25 433.652344 114.042969 433.902344 113.8125 434.132812 C 113.582031 434.363281 113.332031 434.570312 113.0625 434.75 C 112.792969 434.929688 112.507812 435.082031 112.207031 435.207031 C 111.90625 435.332031 111.59375 435.425781 111.277344 435.488281 C 110.957031 435.550781 110.632812 435.585938 110.308594 435.585938 C 109.984375 435.585938 109.660156 435.550781 109.34375 435.488281 C 109.023438 435.425781 108.714844 435.332031 108.414062 435.207031 C 108.113281 435.082031 107.828125 434.929688 107.554688 434.75 C 107.285156 434.570312 107.035156 434.363281 106.804688 434.132812 C 106.574219 433.902344 106.371094 433.652344 106.1875 433.382812 C 106.007812 433.113281 105.855469 432.824219 105.730469 432.527344 C 105.605469 432.226562 105.511719 431.914062 105.449219 431.597656 C 105.386719 431.277344 105.351562 430.953125 105.351562 430.628906 C 105.351562 430.304688 105.386719 429.980469 105.449219 429.664062 C 105.511719 429.34375 105.605469 429.035156 105.730469 428.734375 C 105.855469 428.433594 106.007812 428.148438 106.1875 427.878906 C 106.367188 427.605469 106.574219 427.355469 106.804688 427.125 C 107.035156 426.894531 107.285156 426.691406 107.554688 426.511719 C 107.828125 426.328125 108.113281 426.175781 108.414062 426.050781 C 108.714844 425.929688 109.023438 425.832031 109.34375 425.769531 C 109.660156 425.707031 109.984375 425.675781 110.308594 425.675781 C 110.632812 425.675781 110.957031 425.707031 111.277344 425.769531 C 111.59375 425.832031 111.90625 425.929688 112.207031 426.050781 C 112.507812 426.175781 112.792969 426.328125 113.0625 426.511719 C 113.332031 426.691406 113.582031 426.894531 113.8125 427.125 C 114.042969 427.355469 114.25 427.605469 114.429688 427.878906 C 114.609375 428.148438 114.761719 428.433594 114.886719 428.734375 C 115.011719 429.035156 115.105469 429.34375 115.171875 429.664062 C 115.234375 429.980469 115.265625 430.304688 115.265625 430.628906 Z M 115.265625 430.628906 " fill-opacity="1" fill-rule="nonzero"/></g><path fill="#00ffff" d="M 115.265625 745.199219 C 115.265625 745.527344 115.234375 745.847656 115.171875 746.167969 C 115.105469 746.484375 115.011719 746.796875 114.886719 747.097656 C 114.761719 747.398438 114.609375 747.683594 114.429688 747.953125 C 114.25 748.222656 114.042969 748.472656 113.8125 748.703125 C 113.582031 748.933594 113.332031 749.140625 113.0625 749.320312 C 112.792969 749.5 112.507812 749.652344 112.207031 749.777344 C 111.90625 749.902344 111.59375 749.996094 111.277344 750.058594 C 110.957031 750.125 110.632812 750.15625 110.308594 750.15625 C 109.984375 750.15625 109.660156 750.125 109.34375 750.058594 C 109.023438 749.996094 108.714844 749.902344 108.414062 749.777344 C 108.113281 749.652344 107.828125 749.5 107.554688 749.320312 C 107.285156 749.140625 107.035156 748.933594 106.804688 748.703125 C 106.574219 748.472656 106.371094 748.222656 106.1875 747.953125 C 106.007812 747.683594 105.855469 747.398438 105.730469 747.097656 C 105.605469 746.796875 105.511719 746.484375 105.449219 746.167969 C 105.386719 745.847656 105.351562 745.527344 105.351562 745.199219 C 105.351562 744.875 105.386719 744.554688 105.449219 744.234375 C 105.511719 743.914062 105.605469 743.605469 105.730469 743.304688 C 105.855469 743.003906 106.007812 742.71875 106.1875 742.449219 C 106.367188 742.175781 106.574219 741.925781 106.804688 741.695312 C 107.035156 741.46875 107.285156 741.261719 107.554688 741.082031 C 107.828125 740.898438 108.113281 740.746094 108.414062 740.625 C 108.714844 740.5 109.023438 740.40625 109.34375 740.339844 C 109.660156 740.277344 109.984375 740.246094 110.308594 740.246094 C 110.632812 740.246094 110.957031 740.277344 111.277344 740.339844 C 111.59375 740.40625 111.90625 740.5 112.207031 740.625 C 112.507812 740.746094 112.792969 740.898438 113.0625 741.082031 C 113.332031 741.261719 113.582031 741.46875 113.8125 741.695312 C 114.042969 741.925781 114.25 742.175781 114.429688 742.449219 C 114.609375 742.71875 114.761719 743.003906 114.886719 743.304688 C 115.011719 743.605469 115.105469 743.914062 115.171875 744.234375 C 115.234375 744.554688 115.265625 744.875 115.265625 745.199219 Z M 115.265625 745.199219 " fill-opacity="1" fill-rule="nonzero"/><path fill="#00ffff" d="M 115.265625 808.113281 C 115.265625 808.4375 115.234375 808.761719 115.171875 809.078125 C 115.105469 809.398438 115.011719 809.707031 114.886719 810.007812 C 114.761719 810.308594 114.609375 810.59375 114.429688 810.863281 C 114.25 811.136719 114.042969 811.386719 113.8125 811.617188 C 113.582031 811.847656 113.332031 812.050781 113.0625 812.230469 C 112.792969 812.414062 112.507812 812.566406 112.207031 812.691406 C 111.90625 812.8125 111.59375 812.910156 111.277344 812.972656 C 110.957031 813.035156 110.632812 813.066406 110.308594 813.066406 C 109.984375 813.066406 109.660156 813.035156 109.34375 812.972656 C 109.023438 812.910156 108.714844 812.8125 108.414062 812.691406 C 108.113281 812.566406 107.828125 812.414062 107.554688 812.230469 C 107.285156 812.050781 107.035156 811.847656 106.804688 811.617188 C 106.574219 811.386719 106.371094 811.136719 106.1875 810.863281 C 106.007812 810.59375 105.855469 810.308594 105.730469 810.007812 C 105.605469 809.707031 105.511719 809.398438 105.449219 809.078125 C 105.386719 808.761719 105.351562 808.4375 105.351562 808.113281 C 105.351562 807.789062 105.386719 807.464844 105.449219 807.144531 C 105.511719 806.828125 105.605469 806.515625 105.730469 806.214844 C 105.855469 805.917969 106.007812 805.628906 106.1875 805.359375 C 106.367188 805.089844 106.574219 804.839844 106.804688 804.609375 C 107.035156 804.378906 107.285156 804.175781 107.554688 803.992188 C 107.828125 803.8125 108.113281 803.660156 108.414062 803.535156 C 108.714844 803.410156 109.023438 803.316406 109.34375 803.253906 C 109.660156 803.191406 109.984375 803.160156 110.308594 803.15625 C 110.632812 803.160156 110.957031 803.191406 111.277344 803.253906 C 111.59375 803.316406 111.90625 803.410156 112.207031 803.535156 C 112.507812 803.660156 112.792969 803.8125 113.0625 803.992188 C 113.332031 804.175781 113.582031 804.378906 113.8125 804.609375 C 114.042969 804.839844 114.25 805.089844 114.429688 805.359375 C 114.609375 805.628906 114.761719 805.917969 114.886719 806.214844 C 115.011719 806.515625 115.105469 806.828125 115.171875 807.144531 C 115.234375 807.464844 115.265625 807.789062 115.265625 808.113281 Z M 115.265625 808.113281 " fill-opacity="1" fill-rule="nonzero"/><path fill="#00ffff" d="M 20.859375 713.742188 C 20.859375 714.066406 20.828125 714.390625 20.765625 714.710938 C 20.703125 715.027344 20.609375 715.339844 20.484375 715.640625 C 20.359375 715.9375 20.207031 716.226562 20.027344 716.496094 C 19.84375 716.765625 19.640625 717.015625 19.410156 717.246094 C 19.179688 717.476562 18.929688 717.679688 18.660156 717.863281 C 18.386719 718.042969 18.101562 718.195312 17.800781 718.320312 C 17.5 718.445312 17.191406 718.539062 16.871094 718.601562 C 16.550781 718.664062 16.230469 718.695312 15.90625 718.695312 C 15.578125 718.695312 15.257812 718.664062 14.9375 718.601562 C 14.617188 718.539062 14.308594 718.445312 14.007812 718.320312 C 13.707031 718.195312 13.421875 718.042969 13.152344 717.863281 C 12.878906 717.679688 12.628906 717.476562 12.398438 717.246094 C 12.171875 717.015625 11.964844 716.765625 11.785156 716.496094 C 11.601562 716.226562 11.449219 715.9375 11.324219 715.640625 C 11.203125 715.339844 11.105469 715.027344 11.042969 714.710938 C 10.980469 714.390625 10.949219 714.066406 10.949219 713.742188 C 10.949219 713.417969 10.980469 713.09375 11.042969 712.777344 C 11.105469 712.457031 11.203125 712.148438 11.324219 711.847656 C 11.449219 711.546875 11.601562 711.261719 11.785156 710.988281 C 11.964844 710.71875 12.171875 710.46875 12.398438 710.238281 C 12.628906 710.007812 12.878906 709.804688 13.152344 709.625 C 13.421875 709.441406 13.707031 709.289062 14.007812 709.164062 C 14.308594 709.039062 14.617188 708.945312 14.9375 708.882812 C 15.257812 708.820312 15.578125 708.789062 15.90625 708.789062 C 16.230469 708.789062 16.550781 708.820312 16.871094 708.882812 C 17.191406 708.945312 17.5 709.039062 17.800781 709.164062 C 18.101562 709.289062 18.386719 709.441406 18.660156 709.625 C 18.929688 709.804688 19.179688 710.007812 19.410156 710.238281 C 19.640625 710.46875 19.84375 710.71875 20.027344 710.988281 C 20.207031 711.261719 20.359375 711.546875 20.484375 711.847656 C 20.609375 712.148438 20.703125 712.457031 20.765625 712.777344 C 20.828125 713.09375 20.859375 713.417969 20.859375 713.742188 Z M 20.859375 713.742188 " fill-opacity="1" fill-rule="nonzero"/><path fill="#00ffff" d="M 47.371094 682.246094 C 46.992188 682.246094 46.617188 682.207031 46.246094 682.132812 C 45.871094 682.058594 45.511719 681.949219 45.160156 681.804688 C 44.808594 681.660156 44.476562 681.480469 44.160156 681.269531 C 43.84375 681.058594 43.554688 680.820312 43.285156 680.550781 C 43.015625 680.285156 42.777344 679.992188 42.566406 679.675781 C 42.355469 679.359375 42.175781 679.027344 42.03125 678.675781 C 41.886719 678.328125 41.777344 677.964844 41.703125 677.59375 C 41.628906 677.21875 41.589844 676.84375 41.589844 676.464844 C 41.589844 676.085938 41.628906 675.710938 41.703125 675.335938 C 41.777344 674.964844 41.886719 674.605469 42.03125 674.253906 C 42.175781 673.902344 42.355469 673.570312 42.566406 673.253906 C 42.777344 672.9375 43.015625 672.644531 43.285156 672.378906 C 43.554688 672.109375 43.84375 671.871094 44.160156 671.660156 C 44.476562 671.449219 44.808594 671.269531 45.160156 671.125 C 45.511719 670.980469 45.871094 670.871094 46.246094 670.796875 C 46.617188 670.722656 46.992188 670.683594 47.371094 670.683594 C 47.753906 670.683594 48.128906 670.722656 48.5 670.796875 C 48.875 670.871094 49.234375 670.980469 49.585938 671.125 C 49.9375 671.269531 50.269531 671.449219 50.585938 671.660156 C 50.902344 671.871094 51.191406 672.109375 51.460938 672.378906 C 51.730469 672.644531 51.96875 672.9375 52.179688 673.253906 C 52.390625 673.570312 52.570312 673.902344 52.714844 674.253906 C 52.859375 674.605469 52.96875 674.964844 53.042969 675.335938 C 53.117188 675.710938 53.15625 676.085938 53.15625 676.464844 C 53.15625 676.84375 53.117188 677.21875 53.042969 677.59375 C 52.96875 677.964844 52.859375 678.324219 52.714844 678.675781 C 52.566406 679.027344 52.390625 679.359375 52.179688 679.675781 C 51.96875 679.992188 51.726562 680.28125 51.460938 680.550781 C 51.191406 680.820312 50.898438 681.058594 50.582031 681.269531 C 50.269531 681.480469 49.933594 681.660156 49.585938 681.804688 C 49.234375 681.949219 48.871094 682.058594 48.5 682.132812 C 48.128906 682.207031 47.753906 682.246094 47.371094 682.246094 Z M 47.371094 672.335938 C 47.101562 672.335938 46.832031 672.363281 46.566406 672.414062 C 46.300781 672.46875 46.042969 672.546875 45.792969 672.652344 C 45.542969 672.753906 45.304688 672.882812 45.078125 673.03125 C 44.851562 673.183594 44.644531 673.355469 44.453125 673.546875 C 44.261719 673.738281 44.089844 673.945312 43.9375 674.171875 C 43.789062 674.398438 43.660156 674.632812 43.558594 674.886719 C 43.453125 675.136719 43.375 675.394531 43.320312 675.660156 C 43.269531 675.925781 43.242188 676.195312 43.242188 676.464844 C 43.242188 676.734375 43.269531 677.003906 43.320312 677.269531 C 43.375 677.535156 43.453125 677.792969 43.558594 678.046875 C 43.660156 678.296875 43.789062 678.535156 43.9375 678.757812 C 44.089844 678.984375 44.261719 679.191406 44.453125 679.382812 C 44.644531 679.578125 44.851562 679.746094 45.078125 679.898438 C 45.304688 680.046875 45.542969 680.175781 45.792969 680.28125 C 46.042969 680.382812 46.300781 680.460938 46.566406 680.515625 C 46.832031 680.566406 47.101562 680.59375 47.371094 680.59375 C 47.644531 680.59375 47.914062 680.566406 48.179688 680.515625 C 48.445312 680.460938 48.703125 680.382812 48.953125 680.28125 C 49.203125 680.175781 49.441406 680.046875 49.667969 679.898438 C 49.894531 679.746094 50.101562 679.578125 50.292969 679.382812 C 50.484375 679.191406 50.65625 678.984375 50.808594 678.757812 C 50.957031 678.535156 51.085938 678.296875 51.1875 678.046875 C 51.292969 677.792969 51.371094 677.535156 51.421875 677.269531 C 51.476562 677.003906 51.503906 676.734375 51.503906 676.464844 C 51.503906 676.195312 51.476562 675.925781 51.421875 675.660156 C 51.371094 675.394531 51.289062 675.136719 51.1875 674.886719 C 51.082031 674.636719 50.957031 674.398438 50.804688 674.171875 C 50.652344 673.949219 50.484375 673.738281 50.292969 673.546875 C 50.101562 673.355469 49.890625 673.183594 49.664062 673.035156 C 49.441406 672.882812 49.203125 672.757812 48.953125 672.652344 C 48.703125 672.546875 48.445312 672.46875 48.179688 672.417969 C 47.914062 672.363281 47.644531 672.335938 47.371094 672.335938 Z M 47.371094 672.335938 " fill-opacity="1" fill-rule="nonzero"/><g clip-path="url(#692edd109b)"><path fill="#00ffff" d="M 524.339844 745.199219 C 524.339844 745.527344 524.308594 745.847656 524.246094 746.167969 C 524.183594 746.484375 524.089844 746.796875 523.964844 747.097656 C 523.839844 747.398438 523.6875 747.683594 523.507812 747.953125 C 523.324219 748.222656 523.121094 748.472656 522.890625 748.703125 C 522.660156 748.933594 522.410156 749.140625 522.140625 749.320312 C 521.867188 749.5 521.582031 749.652344 521.28125 749.777344 C 520.980469 749.902344 520.671875 749.996094 520.351562 750.058594 C 520.03125 750.125 519.710938 750.15625 519.386719 750.15625 C 519.058594 750.15625 518.738281 750.125 518.417969 750.058594 C 518.097656 749.996094 517.789062 749.902344 517.488281 749.777344 C 517.1875 749.652344 516.902344 749.5 516.632812 749.320312 C 516.359375 749.140625 516.109375 748.933594 515.878906 748.703125 C 515.652344 748.472656 515.445312 748.222656 515.265625 747.953125 C 515.082031 747.683594 514.929688 747.398438 514.804688 747.097656 C 514.683594 746.796875 514.585938 746.484375 514.523438 746.167969 C 514.460938 745.847656 514.429688 745.527344 514.429688 745.199219 C 514.429688 744.875 514.460938 744.554688 514.523438 744.234375 C 514.585938 743.914062 514.683594 743.605469 514.804688 743.304688 C 514.929688 743.003906 515.082031 742.71875 515.265625 742.449219 C 515.445312 742.175781 515.652344 741.925781 515.878906 741.695312 C 516.109375 741.46875 516.359375 741.261719 516.632812 741.082031 C 516.902344 740.898438 517.1875 740.746094 517.488281 740.625 C 517.789062 740.5 518.097656 740.40625 518.417969 740.339844 C 518.738281 740.277344 519.058594 740.246094 519.386719 740.246094 C 519.710938 740.246094 520.03125 740.277344 520.351562 740.339844 C 520.671875 740.40625 520.980469 740.5 521.28125 740.625 C 521.582031 740.746094 521.867188 740.898438 522.140625 741.082031 C 522.410156 741.261719 522.660156 741.46875 522.890625 741.695312 C 523.121094 741.925781 523.324219 742.175781 523.507812 742.449219 C 523.6875 742.71875 523.839844 743.003906 523.964844 743.304688 C 524.089844 743.605469 524.183594 743.914062 524.246094 744.234375 C 524.308594 744.554688 524.339844 744.875 524.339844 745.199219 Z M 524.339844 745.199219 " fill-opacity="1" fill-rule="nonzero"/></g><path fill="#322f30" d="M 1534.183594 619.058594 C 1533.585938 638.480469 1491.371094 654.160156 1439.347656 654.160156 C 1387.332031 654.160156 1345.113281 638.480469 1344.519531 619.058594 C 1337.003906 624.523438 1332.738281 630.714844 1332.738281 637.285156 C 1332.738281 659.335938 1380.472656 677.207031 1439.347656 677.207031 C 1498.230469 677.207031 1545.964844 659.335938 1545.964844 637.285156 C 1545.964844 630.714844 1541.695312 624.523438 1534.183594 619.058594 " fill-opacity="1" fill-rule="nonzero"/><path fill="#322f30" d="M 1211.621094 491.710938 Z M 1212.492188 502.761719 C 1209.203125 499.476562 1209.203125 494.132812 1212.492188 490.851562 C 1215.773438 487.566406 1221.109375 487.566406 1224.394531 490.851562 C 1227.675781 494.132812 1227.675781 499.476562 1224.394531 502.761719 C 1221.109375 506.050781 1215.773438 506.042969 1212.492188 502.761719 Z M 1230.765625 386.839844 C 1235.410156 386.839844 1239.1875 390.617188 1239.1875 395.261719 C 1239.1875 399.910156 1235.410156 403.683594 1230.765625 403.683594 C 1226.125 403.683594 1222.347656 399.910156 1222.347656 395.261719 C 1222.347656 390.617188 1226.125 386.839844 1230.765625 386.839844 Z M 1336.890625 496.070312 L 1299.082031 458.234375 L 1255.46875 458.234375 L 1233.351562 436.097656 L 1233.351562 405.933594 C 1238.167969 404.765625 1241.769531 400.4375 1241.769531 395.261719 C 1241.769531 389.191406 1236.832031 384.25 1230.765625 384.25 C 1224.699219 384.25 1219.769531 389.191406 1219.769531 395.261719 C 1219.769531 400.4375 1223.371094 404.765625 1228.1875 405.929688 L 1228.1875 438.242188 L 1250.746094 460.816406 L 1224.152344 487.429688 C 1219.917969 484.855469 1214.320312 485.359375 1210.660156 489.019531 C 1206.371094 493.3125 1206.371094 500.296875 1210.660156 504.589844 C 1214.953125 508.878906 1221.929688 508.878906 1226.214844 504.589844 C 1225.144531 505.664062 1224.074219 506.734375 1226.214844 504.589844 C 1226.746094 504.0625 1227.070312 503.734375 1227.261719 503.542969 C 1227.027344 503.777344 1226.628906 504.183594 1226.222656 504.589844 C 1229.871094 500.929688 1230.382812 495.324219 1227.804688 491.089844 L 1255.46875 463.40625 L 1296.941406 463.40625 L 1331.722656 498.214844 L 1331.722656 568.765625 L 1382.378906 619.457031 L 1382.378906 657.378906 L 1387.546875 657.378906 L 1387.546875 617.320312 L 1336.890625 566.621094 L 1336.890625 496.070312 " fill-opacity="1" fill-rule="nonzero"/><path fill="#322f30" d="M 1227.261719 503.542969 C 1227.488281 503.316406 1227.546875 503.257812 1227.261719 503.542969 " fill-opacity="1" fill-rule="nonzero"/><path fill="#322f30" d="M 1429.613281 118.210938 C 1434.257812 118.210938 1438.035156 121.988281 1438.035156 126.632812 C 1438.035156 131.28125 1434.257812 135.058594 1429.613281 135.058594 C 1424.96875 135.058594 1421.195312 131.28125 1421.195312 126.632812 C 1421.195312 121.988281 1424.96875 118.210938 1429.613281 118.210938 Z M 1374.492188 341.425781 L 1432.199219 283.679688 L 1432.199219 137.304688 C 1437.015625 136.136719 1440.617188 131.808594 1440.617188 126.632812 C 1440.617188 120.566406 1435.683594 115.628906 1429.613281 115.628906 C 1423.554688 115.628906 1418.617188 120.566406 1418.617188 126.632812 C 1418.617188 131.808594 1422.21875 136.136719 1427.035156 137.304688 L 1427.035156 281.535156 L 1369.324219 339.28125 L 1369.324219 437.261719 L 1407.445312 467.046875 L 1407.445312 661.777344 L 1412.613281 661.777344 L 1412.613281 464.519531 L 1374.492188 434.734375 L 1374.492188 341.425781 " fill-opacity="1" fill-rule="nonzero"/><path fill="#322f30" d="M 1357.804688 463.40625 C 1362.449219 463.40625 1366.222656 467.183594 1366.222656 471.828125 C 1366.222656 476.472656 1362.449219 480.25 1357.804688 480.25 C 1353.164062 480.25 1349.386719 476.472656 1349.386719 471.828125 C 1349.386719 467.183594 1353.164062 463.40625 1357.804688 463.40625 Z M 1389.664062 512.824219 C 1384.300781 512.824219 1379.953125 517.171875 1379.953125 522.535156 C 1379.953125 527 1382.984375 530.722656 1387.085938 531.863281 L 1387.085938 576.089844 L 1360.386719 549.378906 L 1360.386719 482.496094 C 1365.207031 481.324219 1368.808594 477.003906 1368.808594 471.828125 C 1368.808594 465.757812 1363.871094 460.816406 1357.804688 460.816406 C 1351.742188 460.816406 1346.808594 465.757812 1346.808594 471.828125 C 1346.808594 477.003906 1350.40625 481.324219 1355.226562 482.496094 L 1355.226562 551.519531 L 1392.242188 588.570312 L 1392.242188 531.863281 C 1396.34375 530.722656 1399.375 527 1399.375 522.535156 C 1399.375 517.171875 1395.027344 512.824219 1389.664062 512.824219 " fill-opacity="1" fill-rule="nonzero"/><path fill="#322f30" d="M 1351.539062 228.019531 C 1346.894531 228.019531 1343.121094 224.242188 1343.121094 219.597656 C 1343.121094 214.949219 1346.894531 211.171875 1351.539062 211.171875 C 1356.179688 211.171875 1359.960938 214.949219 1359.960938 219.597656 C 1359.960938 224.242188 1356.179688 228.019531 1351.539062 228.019531 Z M 1389.460938 251.570312 L 1373.703125 235.800781 L 1373.703125 130.554688 L 1348.957031 155.324219 L 1348.957031 208.929688 C 1344.140625 210.101562 1340.539062 214.421875 1340.539062 219.597656 C 1340.539062 225.664062 1345.472656 230.609375 1351.539062 230.609375 C 1357.601562 230.609375 1362.539062 225.664062 1362.539062 219.597656 C 1362.539062 214.421875 1358.9375 210.09375 1354.125 208.929688 L 1354.125 157.460938 L 1368.542969 143.03125 L 1368.542969 237.945312 L 1385.808594 255.222656 C 1383.710938 258.933594 1384.203125 263.703125 1387.359375 266.855469 C 1391.148438 270.652344 1397.300781 270.652344 1401.085938 266.855469 C 1404.878906 263.066406 1404.878906 256.914062 1401.085938 253.121094 C 1397.933594 249.960938 1393.160156 249.476562 1389.460938 251.570312 " fill-opacity="1" fill-rule="nonzero"/><path fill="#322f30" d="M 1314.949219 552.761719 C 1319.050781 551.628906 1322.082031 547.90625 1322.082031 543.441406 C 1322.082031 538.074219 1317.734375 533.722656 1312.371094 533.722656 C 1307.007812 533.722656 1302.660156 538.074219 1302.660156 543.441406 C 1302.660156 547.90625 1305.6875 551.628906 1309.789062 552.761719 L 1309.789062 577.125 L 1359.398438 626.777344 L 1359.398438 647.945312 L 1364.566406 647.945312 L 1364.566406 624.640625 L 1314.949219 574.984375 L 1314.949219 552.761719 " fill-opacity="1" fill-rule="nonzero"/><g clip-path="url(#b454eb68f5)"><path fill="#322f30" d="M 1332.738281 463.203125 C 1328.097656 463.203125 1324.320312 459.425781 1324.320312 454.773438 C 1324.320312 450.132812 1328.097656 446.347656 1332.738281 446.347656 C 1337.382812 446.347656 1341.15625 450.132812 1341.15625 454.773438 C 1341.15625 459.425781 1337.382812 463.203125 1332.738281 463.203125 Z M 1209.226562 185.109375 C 1213.871094 185.109375 1217.644531 188.886719 1217.644531 193.53125 C 1217.644531 198.179688 1213.871094 201.957031 1209.226562 201.957031 C 1204.585938 201.957031 1200.808594 198.179688 1200.808594 193.53125 C 1200.808594 188.886719 1204.585938 185.109375 1209.226562 185.109375 Z M 1330.160156 420.832031 L 1330.160156 444.105469 C 1325.335938 445.277344 1321.734375 449.601562 1321.734375 454.773438 C 1321.734375 460.847656 1326.671875 465.785156 1332.738281 465.785156 C 1338.804688 465.785156 1343.734375 460.847656 1343.734375 454.773438 C 1343.734375 449.601562 1340.140625 445.277344 1335.320312 444.105469 L 1335.320312 314.199219 L 1305.085938 283.9375 L 1254.429688 283.9375 L 1211.808594 241.292969 L 1211.808594 204.199219 C 1216.621094 203.027344 1220.222656 198.707031 1220.222656 193.53125 C 1220.222656 187.464844 1215.292969 182.519531 1209.226562 182.519531 C 1203.160156 182.519531 1198.222656 187.464844 1198.222656 193.53125 C 1198.222656 198.707031 1201.824219 203.027344 1206.640625 204.199219 L 1206.640625 243.4375 L 1252.285156 289.109375 L 1302.941406 289.109375 L 1330.160156 316.34375 L 1330.160156 413.527344 L 1262.542969 345.863281 L 1176.992188 345.863281 L 1118.902344 287.738281 L 1118.902344 202.867188 C 1123.003906 201.734375 1126.035156 198.011719 1126.035156 193.542969 C 1126.035156 188.179688 1121.6875 183.828125 1116.324219 183.828125 C 1110.960938 183.828125 1106.613281 188.179688 1106.613281 193.542969 C 1106.613281 198.011719 1109.644531 201.734375 1113.742188 202.867188 L 1113.742188 289.882812 L 1174.851562 351.03125 L 1260.402344 351.03125 L 1330.160156 420.832031 " fill-opacity="1" fill-rule="nonzero"/></g><path fill="#322f30" d="M 1192.472656 116.351562 C 1197.117188 116.351562 1200.890625 120.128906 1200.890625 124.773438 C 1200.890625 129.417969 1197.117188 133.195312 1192.472656 133.195312 C 1187.832031 133.195312 1184.054688 129.417969 1184.054688 124.773438 C 1184.054688 120.128906 1187.832031 116.351562 1192.472656 116.351562 Z M 1318.636719 90.542969 C 1323.28125 90.542969 1327.054688 94.320312 1327.054688 98.96875 C 1327.054688 103.613281 1323.28125 107.390625 1318.636719 107.390625 C 1313.996094 107.390625 1310.222656 103.613281 1310.222656 98.96875 C 1310.222656 94.320312 1313.996094 90.542969 1318.636719 90.542969 Z M 1192.472656 135.785156 C 1197.644531 135.785156 1201.960938 132.179688 1203.136719 127.359375 L 1274.371094 127.359375 L 1316.058594 169.070312 L 1316.058594 204.507812 L 1292.808594 181.246094 L 1260.640625 181.246094 L 1240.046875 201.855469 C 1236.34375 199.761719 1231.574219 200.25 1228.417969 203.402344 C 1224.625 207.199219 1224.625 213.355469 1228.417969 217.144531 C 1232.210938 220.941406 1238.359375 220.941406 1242.152344 217.144531 C 1245.304688 213.988281 1245.789062 209.214844 1243.695312 205.511719 L 1262.785156 186.414062 L 1290.671875 186.414062 L 1316.058594 211.8125 L 1316.058594 241.605469 L 1348.957031 274.527344 L 1348.957031 374.621094 C 1344.855469 375.761719 1341.832031 379.480469 1341.832031 383.949219 C 1341.832031 389.308594 1346.179688 393.660156 1351.539062 393.660156 C 1356.902344 393.660156 1361.246094 389.308594 1361.246094 383.949219 C 1361.246094 379.480469 1358.21875 375.761719 1354.125 374.621094 L 1354.125 272.390625 L 1321.21875 239.460938 L 1321.21875 109.640625 C 1326.039062 108.46875 1329.636719 104.144531 1329.636719 98.96875 C 1329.636719 92.898438 1324.703125 87.960938 1318.636719 87.960938 C 1312.574219 87.960938 1307.636719 92.898438 1307.636719 98.96875 C 1307.636719 104.144531 1311.238281 108.46875 1316.058594 109.640625 L 1316.058594 161.761719 L 1276.515625 122.191406 L 1203.132812 122.191406 C 1201.960938 117.367188 1197.644531 113.769531 1192.472656 113.769531 C 1186.40625 113.769531 1181.46875 118.703125 1181.46875 124.773438 C 1181.46875 130.84375 1186.40625 135.785156 1192.472656 135.785156 " fill-opacity="1" fill-rule="nonzero"/><path fill="#322f30" d="M 1252.292969 32.917969 C 1256.757812 32.917969 1260.476562 29.886719 1261.609375 25.785156 L 1348.820312 25.785156 L 1387.085938 64.074219 L 1387.085938 91.855469 C 1382.984375 92.996094 1379.953125 96.71875 1379.953125 101.1875 C 1379.953125 106.546875 1384.300781 110.898438 1389.664062 110.898438 C 1395.027344 110.898438 1399.375 106.546875 1399.375 101.1875 C 1399.375 96.71875 1396.34375 92.996094 1392.242188 91.855469 L 1392.242188 61.929688 L 1350.964844 20.613281 L 1261.609375 20.613281 C 1260.476562 16.511719 1256.757812 13.484375 1252.292969 13.484375 C 1246.933594 13.484375 1242.582031 17.835938 1242.582031 23.203125 C 1242.582031 28.570312 1246.933594 32.917969 1252.292969 32.917969 " fill-opacity="1" fill-rule="nonzero"/><path fill="#322f30" d="M 1464.371094 354.796875 C 1469.015625 354.796875 1472.789062 358.574219 1472.789062 363.222656 C 1472.789062 367.867188 1469.015625 371.652344 1464.371094 371.652344 C 1459.730469 371.652344 1455.953125 367.867188 1455.953125 363.222656 C 1455.953125 358.574219 1459.730469 354.796875 1464.371094 354.796875 Z M 1475.375 363.222656 C 1475.375 357.152344 1470.4375 352.214844 1464.371094 352.214844 C 1458.308594 352.214844 1453.375 357.152344 1453.375 363.222656 C 1453.375 368.398438 1456.976562 372.722656 1461.792969 373.894531 L 1461.792969 403.230469 L 1436.769531 428.269531 L 1436.769531 459.546875 L 1421.25 444.019531 L 1421.25 395.292969 C 1425.351562 394.160156 1428.382812 390.429688 1428.382812 385.96875 C 1428.382812 380.601562 1424.035156 376.253906 1418.671875 376.253906 C 1413.308594 376.253906 1408.960938 380.601562 1408.960938 385.96875 C 1408.960938 390.429688 1411.992188 394.160156 1416.089844 395.292969 L 1416.089844 446.160156 L 1436.769531 466.855469 L 1436.769531 657.378906 L 1441.933594 657.378906 L 1441.933594 430.410156 L 1466.957031 405.375 L 1466.957031 373.894531 C 1471.773438 372.722656 1475.375 368.398438 1475.375 363.222656 " fill-opacity="1" fill-rule="nonzero"/><g clip-path="url(#4a168e1c8b)"><path fill="#322f30" d="M 1439.347656 733.554688 C 1407.007812 733.554688 1374.441406 728.226562 1352.152344 717.84375 C 1372.34375 749.636719 1403.871094 770.144531 1439.347656 770.144531 C 1474.839844 770.144531 1506.359375 749.636719 1526.550781 717.84375 C 1504.257812 728.226562 1471.691406 733.554688 1439.347656 733.554688 " fill-opacity="1" fill-rule="nonzero"/></g><path fill="#322f30" d="M 1534.183594 663.386719 C 1533.585938 682.8125 1491.371094 698.496094 1439.347656 698.496094 C 1387.332031 698.496094 1345.113281 682.8125 1344.519531 663.386719 C 1337.003906 668.855469 1332.738281 675.050781 1332.738281 681.617188 C 1332.738281 703.664062 1380.472656 721.535156 1439.347656 721.535156 C 1498.230469 721.535156 1545.964844 703.664062 1545.964844 681.617188 C 1545.964844 675.050781 1541.695312 668.855469 1534.183594 663.386719 " fill-opacity="1" fill-rule="nonzero"/></svg>